<svg xmlns="http://www.w3.org/2000/svg" version="1.1" xmlns:xlink="http://www.w3.org/1999/xlink" xmlns:svgjs="http://svgjs.dev/svgjs" width="1500" height="1500" viewBox="0 0 1500 1500"><rect width="1500" height="1500" fill="#000000"></rect><g transform="matrix(0.6666666666666666,0,0,0.6666666666666666,248.7765957446809,598.4508175438598)"><svg viewBox="0 0 376 114" data-background-color="#ffffff" preserveAspectRatio="xMidYMid meet" height="454" width="1500" xmlns="http://www.w3.org/2000/svg" xmlns:xlink="http://www.w3.org/1999/xlink"><g id="tight-bounds" transform="matrix(1,0,0,1,0.46023999999999887,0.08160000000000878)"><svg viewBox="0 0 375.07953 113.8371" height="113.8371" width="375.07953"><g><svg></svg></g><g><svg viewBox="0 0 375.07953 113.8371" height="113.8371" width="375.07953"><g transform="matrix(1,0,0,1,-10.22024,-68.4243)"><path d="M10.22 178.776v-110.352h375.08v110.352h-28.923l0-3.527h25.396v-103.298h-368.026v103.298h130.456v3.527z" fill="#ffffff" fill-rule="nonzero" stroke="none" stroke-width="1" stroke-linecap="butt" stroke-linejoin="miter" stroke-miterlimit="10" stroke-dasharray="" stroke-dashoffset="0" font-family="none" font-weight="none" font-size="none" text-anchor="none" style="mix-blend-mode: normal" data-fill-palette-color="tertiary"></path><g><path d="M157.168 181.98h-2.385v-12.977h6.273l-0.263 1.784h-3.625v3.962h3.155v1.784h-3.155zM162.295 172.045h2.31v9.935h-2.31zM163.441 167.087c0.413 0 0.749 0.131 1.007 0.394 0.255 0.263 0.383 0.601 0.383 1.014v0c0 0.401-0.128 0.732-0.383 0.996-0.258 0.263-0.593 0.394-1.007 0.394v0c-0.413 0-0.747-0.131-1.003-0.394-0.258-0.263-0.387-0.595-0.387-0.996v0c0-0.413 0.129-0.751 0.387-1.014 0.255-0.263 0.59-0.394 1.003-0.394zM171.385 171.782c0.714 0 1.277 0.257 1.69 0.77 0.413 0.513 0.62 1.202 0.62 2.066v0 7.362h-2.31v-7.099c0-0.476-0.066-0.818-0.199-1.026-0.13-0.205-0.321-0.308-0.571-0.308v0c-0.526 0-1.045 0.495-1.559 1.484v0 6.949h-2.31v-9.935h2.01l0.169 1.296c0.338-0.526 0.697-0.918 1.078-1.176 0.383-0.255 0.844-0.383 1.382-0.383zM182.127 179.576c0 0.326 0.044 0.566 0.132 0.721 0.088 0.158 0.232 0.287 0.432 0.387v0l-0.47 1.54c-0.513-0.063-0.923-0.2-1.228-0.413-0.308-0.213-0.537-0.538-0.687-0.977v0c-0.576 0.952-1.383 1.427-2.423 1.427v0c-0.826 0-1.484-0.279-1.972-0.837-0.488-0.556-0.732-1.297-0.732-2.224v0c0-1.077 0.334-1.897 1.002-2.46 0.671-0.563 1.645-0.845 2.923-0.845v0h0.77v-0.695c0-0.626-0.11-1.068-0.331-1.326-0.218-0.255-0.571-0.383-1.059-0.383v0c-0.588 0-1.321 0.163-2.197 0.488v0l-0.526-1.502c0.501-0.225 1.02-0.398 1.558-0.518 0.538-0.118 1.052-0.177 1.54-0.177v0c2.179 0 3.268 1.102 3.268 3.305v0zM178.503 180.59c0.601 0 1.058-0.413 1.371-1.24v0-2.084h-0.545c-0.639 0-1.104 0.144-1.397 0.432-0.295 0.288-0.443 0.732-0.443 1.333v0c0 0.513 0.088 0.901 0.262 1.165 0.175 0.263 0.426 0.394 0.752 0.394zM188.944 171.782c0.714 0 1.277 0.257 1.691 0.77 0.413 0.513 0.62 1.202 0.619 2.066v0 7.362h-2.31v-7.099c0-0.476-0.066-0.818-0.199-1.026-0.13-0.205-0.321-0.308-0.57-0.308v0c-0.526 0-1.045 0.495-1.559 1.484v0 6.949h-2.31v-9.935h2.009l0.169 1.296c0.338-0.526 0.699-0.918 1.082-1.176 0.381-0.255 0.84-0.383 1.378-0.383zM196.907 171.782c0.538 0 1.027 0.09 1.465 0.27 0.438 0.183 0.858 0.468 1.258 0.857v0l-0.995 1.314c-0.275-0.225-0.536-0.392-0.781-0.499-0.243-0.105-0.508-0.158-0.796-0.158v0c-0.563 0-0.989 0.265-1.278 0.796-0.288 0.533-0.432 1.432-0.431 2.697v0c0 1.227 0.146 2.091 0.439 2.592 0.295 0.501 0.719 0.751 1.27 0.751v0c0.275 0 0.526-0.05 0.751-0.15 0.225-0.1 0.488-0.257 0.789-0.47v0l1.032 1.334c-0.801 0.764-1.696 1.146-2.685 1.145v0c-1.277 0-2.269-0.436-2.975-1.307-0.709-0.869-1.063-2.155-1.063-3.857v0c0-1.102 0.163-2.053 0.488-2.855 0.326-0.801 0.791-1.412 1.398-1.833 0.608-0.418 1.313-0.627 2.114-0.627zM207.856 176.778c0 0.113-0.019 0.432-0.056 0.957v0h-5.127c0.05 1.027 0.228 1.743 0.533 2.149 0.308 0.408 0.744 0.612 1.307 0.612v0c0.388 0 0.739-0.066 1.052-0.199 0.313-0.13 0.651-0.339 1.014-0.627v0l0.958 1.314c-0.876 0.851-1.928 1.277-3.155 1.277v0c-1.302 0-2.301-0.451-2.997-1.352-0.694-0.901-1.04-2.172-1.041-3.812v0c0-1.64 0.332-2.936 0.995-3.888 0.664-0.952 1.603-1.427 2.817-1.427v0c1.164 0 2.072 0.422 2.724 1.266 0.651 0.846 0.977 2.09 0.976 3.73zM205.603 176.233v-0.132c0-0.939-0.113-1.625-0.338-2.058-0.225-0.431-0.588-0.646-1.09-0.646v0c-0.463 0-0.818 0.209-1.063 0.627-0.243 0.421-0.389 1.157-0.439 2.209v0zM216.983 168.74c1.014 0 1.812 0.272 2.393 0.815 0.583 0.546 0.875 1.263 0.875 2.152v0c0 0.714-0.182 1.34-0.544 1.878-0.363 0.538-0.895 1.07-1.597 1.596v0l2.291 2.78c0.338-0.989 0.595-1.947 0.77-2.874v0l1.86 0.47c-0.376 1.415-0.839 2.623-1.39 3.624v0l1.859 1.991-1.859 1.089-1.334-1.652c-0.488 0.563-1.014 0.979-1.577 1.247-0.563 0.27-1.189 0.406-1.878 0.405v0c-0.714 0-1.352-0.15-1.916-0.45-0.563-0.3-1.002-0.724-1.314-1.27-0.313-0.543-0.47-1.166-0.47-1.867v0c0-0.764 0.173-1.425 0.519-1.983 0.343-0.556 0.89-1.122 1.641-1.698v0c-0.576-0.601-0.977-1.137-1.202-1.607-0.225-0.468-0.338-1.015-0.338-1.642v0c0-0.876 0.275-1.596 0.826-2.159 0.551-0.563 1.346-0.845 2.385-0.845zM217.021 170.28c-0.701 0-1.052 0.488-1.052 1.464v0c0 0.438 0.069 0.816 0.207 1.135 0.138 0.321 0.382 0.706 0.732 1.157v0c0.413-0.388 0.707-0.745 0.883-1.071 0.175-0.326 0.263-0.726 0.263-1.202v0c0-0.989-0.344-1.484-1.033-1.483zM216.57 176.252c-0.363 0.326-0.624 0.672-0.781 1.04-0.155 0.371-0.233 0.806-0.233 1.307v0c0 0.626 0.15 1.108 0.451 1.446 0.3 0.338 0.707 0.507 1.221 0.507v0c0.388 0 0.739-0.091 1.051-0.274 0.313-0.18 0.613-0.452 0.902-0.815v0zM236.797 181.98h-2.404v-5.822h-3.362v5.822h-2.385v-12.977h2.385v5.239h3.362v-5.239h2.404zM246.055 176.778c0 0.113-0.019 0.432-0.056 0.957v0h-5.127c0.05 1.027 0.229 1.743 0.537 2.149 0.305 0.408 0.74 0.612 1.303 0.612v0c0.388 0 0.739-0.066 1.052-0.199 0.313-0.13 0.651-0.339 1.014-0.627v0l0.958 1.314c-0.876 0.851-1.928 1.277-3.155 1.277v0c-1.302 0-2.3-0.451-2.994-1.352-0.696-0.901-1.044-2.172-1.044-3.812v0c0-1.64 0.332-2.936 0.995-3.888 0.664-0.952 1.603-1.427 2.817-1.427v0c1.164 0 2.072 0.422 2.724 1.266 0.651 0.846 0.977 2.09 0.976 3.73zM243.802 176.233v-0.132c0-0.939-0.113-1.625-0.338-2.058-0.225-0.431-0.588-0.646-1.09-0.646v0c-0.463 0-0.816 0.209-1.059 0.627-0.245 0.421-0.393 1.157-0.443 2.209v0zM254.018 179.576c0 0.326 0.044 0.566 0.131 0.721 0.088 0.158 0.232 0.287 0.432 0.387v0l-0.469 1.54c-0.513-0.063-0.923-0.2-1.228-0.413-0.308-0.213-0.537-0.538-0.688-0.977v0c-0.576 0.952-1.383 1.427-2.422 1.427v0c-0.826 0-1.484-0.279-1.972-0.837-0.488-0.556-0.732-1.297-0.733-2.224v0c0-1.077 0.336-1.897 1.007-2.46 0.669-0.563 1.641-0.845 2.918-0.845v0h0.77v-0.695c0-0.626-0.109-1.068-0.326-1.326-0.22-0.255-0.575-0.383-1.063-0.383v0c-0.588 0-1.321 0.163-2.198 0.488v0l-0.526-1.502c0.501-0.225 1.02-0.398 1.559-0.518 0.538-0.118 1.052-0.177 1.54-0.177v0c2.179 0 3.268 1.102 3.268 3.305v0zM250.393 180.59c0.601 0 1.058-0.413 1.371-1.24v0-2.084h-0.544c-0.639 0-1.104 0.144-1.398 0.432-0.295 0.288-0.443 0.732-0.443 1.333v0c0 0.513 0.088 0.901 0.263 1.165 0.175 0.263 0.426 0.394 0.751 0.394zM258.3 182.261c-0.676 0-1.211-0.21-1.604-0.631-0.396-0.418-0.593-0.978-0.593-1.679v0-11.887l2.31-0.245v12.039c0 0.163 0.038 0.294 0.112 0.394 0.075 0.1 0.188 0.15 0.338 0.15v0c0.088 0 0.173-0.013 0.256-0.037 0.08-0.025 0.133-0.038 0.157-0.038v0l0.451 1.578c-0.426 0.238-0.901 0.357-1.427 0.356zM265.061 180.102l0.807 1.427c-0.613 0.488-1.333 0.732-2.159 0.732v0c-0.864 0-1.521-0.248-1.972-0.743-0.451-0.493-0.676-1.166-0.676-2.017v0-5.785h-1.165v-1.671h1.165v-2.197l2.31-0.282v2.479h1.878l-0.226 1.671h-1.652v5.785c0 0.601 0.257 0.901 0.77 0.901v0c0.163 0 0.307-0.023 0.431-0.067 0.125-0.043 0.288-0.12 0.489-0.233zM271.465 171.782c0.714 0 1.277 0.257 1.69 0.77 0.413 0.513 0.62 1.202 0.62 2.066v0 7.362h-2.31v-7.099c0-0.476-0.065-0.818-0.195-1.026-0.133-0.205-0.324-0.308-0.575-0.308v0c-0.526 0-1.045 0.495-1.559 1.484v0 6.949h-2.31v-13.898l2.31-0.244v5.39c0.313-0.488 0.655-0.851 1.025-1.089 0.368-0.238 0.803-0.357 1.304-0.357zM282.902 168.74c0.751 0 1.415 0.131 1.991 0.394 0.576 0.263 1.108 0.657 1.596 1.183v0l-1.108 1.277c-0.388-0.351-0.766-0.613-1.134-0.789-0.371-0.175-0.762-0.263-1.176-0.262v0c-0.476 0-0.851 0.146-1.127 0.439-0.275 0.295-0.413 0.681-0.413 1.157v0c0 0.476 0.144 0.864 0.432 1.164 0.288 0.3 0.851 0.613 1.69 0.939v0c1.077 0.438 1.869 0.952 2.378 1.54 0.506 0.588 0.759 1.421 0.759 2.498v0c0 0.739-0.169 1.411-0.508 2.017-0.338 0.608-0.823 1.088-1.453 1.439-0.634 0.351-1.37 0.526-2.209 0.525v0c-0.864 0-1.615-0.154-2.253-0.462-0.639-0.305-1.221-0.74-1.747-1.303v0l1.202-1.315c0.451 0.401 0.883 0.707 1.296 0.921 0.413 0.213 0.864 0.319 1.352 0.319v0c0.576 0 1.024-0.179 1.345-0.537 0.318-0.356 0.477-0.84 0.477-1.454v0c0-0.538-0.14-0.98-0.421-1.326-0.283-0.343-0.806-0.659-1.57-0.946v0c-1.152-0.463-1.981-0.995-2.486-1.597-0.508-0.601-0.762-1.352-0.763-2.253v0c0-0.689 0.167-1.302 0.5-1.841 0.331-0.538 0.79-0.96 1.378-1.265 0.588-0.308 1.246-0.462 1.972-0.462zM291.823 171.782c1.252 0 2.226 0.438 2.922 1.315 0.694 0.876 1.04 2.179 1.04 3.906v0c0 1.653-0.351 2.942-1.051 3.869-0.701 0.926-1.671 1.39-2.911 1.389v0c-1.24 0-2.21-0.454-2.911-1.363-0.701-0.906-1.052-2.205-1.052-3.895v0c0-1.678 0.351-2.967 1.052-3.869 0.701-0.901 1.671-1.352 2.911-1.352zM291.823 173.529c-0.538 0-0.933 0.265-1.184 0.796-0.25 0.533-0.376 1.426-0.375 2.678v0c0 1.265 0.125 2.162 0.375 2.693 0.25 0.533 0.645 0.8 1.184 0.8v0c0.538 0 0.933-0.267 1.183-0.8 0.25-0.531 0.376-1.429 0.375-2.693v0c0-1.265-0.125-2.16-0.375-2.686-0.25-0.526-0.645-0.789-1.183-0.788zM299.598 182.261c-0.676 0-1.211-0.21-1.604-0.631-0.396-0.418-0.593-0.978-0.594-1.679v0-11.887l2.31-0.245v12.039c0 0.163 0.038 0.294 0.113 0.394 0.075 0.1 0.188 0.15 0.338 0.15v0c0.088 0 0.173-0.013 0.255-0.037 0.08-0.025 0.133-0.038 0.158-0.038v0l0.451 1.578c-0.426 0.238-0.901 0.357-1.427 0.356zM308.988 172.045v9.935h-2.01l-0.112-1.259c-0.313 0.513-0.664 0.898-1.052 1.154-0.388 0.258-0.839 0.387-1.352 0.386v0c-0.726 0-1.298-0.257-1.717-0.77-0.421-0.513-0.631-1.183-0.631-2.009v0-7.437h2.31v7.305c0 0.776 0.263 1.164 0.789 1.165v0c0.3 0 0.57-0.116 0.807-0.349 0.238-0.23 0.457-0.558 0.658-0.985v0-7.136zM315.317 180.102l0.807 1.427c-0.613 0.488-1.333 0.732-2.159 0.732v0c-0.864 0-1.521-0.248-1.972-0.743-0.451-0.493-0.676-1.166-0.677-2.017v0-5.785h-1.164v-1.671h1.164v-2.197l2.31-0.282v2.479h1.878l-0.225 1.671h-1.653v5.785c0 0.601 0.257 0.901 0.77 0.901v0c0.163 0 0.307-0.023 0.432-0.067 0.125-0.043 0.288-0.12 0.489-0.233zM317.082 172.045h2.31v9.935h-2.31zM318.228 167.087c0.413 0 0.749 0.131 1.006 0.394 0.255 0.263 0.383 0.601 0.383 1.014v0c0 0.401-0.128 0.732-0.383 0.996-0.258 0.263-0.593 0.394-1.006 0.394v0c-0.413 0-0.747-0.131-1.003-0.394-0.258-0.263-0.387-0.595-0.387-0.996v0c0-0.413 0.129-0.751 0.387-1.014 0.255-0.263 0.59-0.394 1.003-0.394zM325.064 171.782c1.252 0 2.226 0.438 2.922 1.315 0.694 0.876 1.04 2.179 1.04 3.906v0c0 1.653-0.351 2.942-1.051 3.869-0.701 0.926-1.671 1.39-2.911 1.389v0c-1.24 0-2.21-0.454-2.911-1.363-0.701-0.906-1.052-2.205-1.052-3.895v0c0-1.678 0.351-2.967 1.052-3.869 0.701-0.901 1.671-1.352 2.911-1.352zM325.064 173.529c-0.538 0-0.933 0.265-1.184 0.796-0.25 0.533-0.376 1.426-0.375 2.678v0c0 1.265 0.125 2.162 0.375 2.693 0.25 0.533 0.645 0.8 1.184 0.8v0c0.538 0 0.933-0.267 1.183-0.8 0.25-0.531 0.376-1.429 0.375-2.693v0c0-1.265-0.125-2.16-0.375-2.686-0.25-0.526-0.645-0.789-1.183-0.788zM335.374 171.782c0.714 0 1.277 0.257 1.69 0.77 0.413 0.513 0.62 1.202 0.62 2.066v0 7.362h-2.31v-7.099c0-0.476-0.065-0.818-0.195-1.026-0.133-0.205-0.324-0.308-0.575-0.308v0c-0.526 0-1.045 0.495-1.559 1.484v0 6.949h-2.31v-9.935h2.01l0.169 1.296c0.338-0.526 0.699-0.918 1.081-1.176 0.381-0.255 0.84-0.383 1.379-0.383zM342.529 171.782c1.177 0 2.172 0.388 2.986 1.164v0l-0.882 1.259c-0.351-0.25-0.682-0.438-0.996-0.564-0.313-0.125-0.632-0.188-0.958-0.188v0c-0.363 0-0.647 0.096-0.852 0.29-0.208 0.195-0.312 0.462-0.312 0.8v0c0 0.338 0.116 0.61 0.349 0.815 0.23 0.208 0.696 0.449 1.398 0.725v0c0.864 0.338 1.502 0.739 1.915 1.202 0.413 0.463 0.62 1.083 0.62 1.859v0c0 0.964-0.338 1.724-1.014 2.28-0.676 0.558-1.534 0.838-2.573 0.837v0c-0.676 0-1.298-0.123-1.867-0.368-0.571-0.243-1.069-0.583-1.495-1.021v0l1.127-1.24c0.701 0.613 1.415 0.92 2.141 0.92v0c0.413 0 0.739-0.109 0.977-0.326 0.238-0.22 0.357-0.525 0.356-0.913v0c0-0.288-0.05-0.522-0.15-0.702-0.1-0.183-0.275-0.353-0.526-0.511-0.25-0.155-0.626-0.327-1.126-0.515v0c-0.864-0.338-1.48-0.732-1.848-1.183-0.371-0.451-0.556-1.027-0.556-1.728v0c0-0.839 0.298-1.531 0.894-2.077 0.593-0.543 1.391-0.815 2.392-0.815z" fill="#ffffff" fill-rule="nonzero" stroke="none" stroke-width="1" stroke-linecap="butt" stroke-linejoin="miter" stroke-miterlimit="10" stroke-dasharray="" stroke-dashoffset="0" font-family="none" font-weight="none" font-size="none" text-anchor="none" style="mix-blend-mode: normal" data-fill-palette-color="secondary" id="text-1"></path></g></g><g transform="matrix(1,0,0,1,29.33176499999999,37.36475224719102)"><svg viewBox="0 0 316.416 39.10759550561797" height="39.10759550561797" width="316.416"><g><svg viewBox="0 0 316.416 39.10759550561797" height="39.10759550561797" width="316.416"><g><svg viewBox="0 0 316.416 39.10759550561797" height="39.10759550561797" width="316.416"><g><svg viewBox="0 0 316.416 39.10759550561797" height="39.10759550561797" width="316.416"><g id="textblocktransform"><svg viewBox="0 0 316.416 39.10759550561797" height="39.10759550561797" width="316.416" id="textblock"><g><svg viewBox="0 0 316.416 39.10759550561797" height="39.10759550561797" width="316.416"><g transform="matrix(1,0,0,1,0,0)"><svg width="316.416" viewBox="3.25 -35.5 293.31 36.26" height="39.10759550561797" data-palette-color="#009dff"><path d="M27.25-7.01L27.25 0 3.25 0 3.25-35.01 27.25-35.01 27.25-28 10.25-28 10.25-21 21.75-21 21.75-13.99 10.25-13.99 10.25-7.01 27.25-7.01ZM60.2-17.5L60.2-17.5Q60.2-15.09 59.58-12.85 58.96-10.62 57.81-8.68 56.66-6.74 55.08-5.14 53.49-3.54 51.54-2.39 49.58-1.25 47.35-0.62 45.11 0 42.7 0L42.7 0 32.15 0 32.15-35.01 42.7-35.01Q45.11-35.01 47.35-34.39 49.58-33.76 51.54-32.62 53.49-31.47 55.08-29.87 56.66-28.27 57.81-26.33 58.96-24.39 59.58-22.16 60.2-19.92 60.2-17.5ZM53.2-17.5L53.2-17.5Q53.2-19.68 52.38-21.58 51.56-23.49 50.13-24.91 48.7-26.34 46.79-27.17 44.87-28 42.7-28L42.7-28 39.21-28 39.21-7.01 42.7-7.01Q44.87-7.01 46.79-7.82 48.7-8.64 50.13-10.07 51.56-11.5 52.38-13.42 53.2-15.33 53.2-17.5ZM99.14-17.36L99.14-17.36Q99.14-14.87 98.49-12.56 97.85-10.25 96.67-8.24 95.5-6.23 93.84-4.57 92.18-2.91 90.18-1.72 88.18-0.54 85.86 0.11 83.54 0.76 81.05 0.76L81.05 0.76Q78.56 0.76 76.25 0.11 73.95-0.54 71.93-1.72 69.92-2.91 68.26-4.57 66.6-6.23 65.41-8.24 64.23-10.25 63.58-12.56 62.93-14.87 62.93-17.36L62.93-17.36Q62.93-19.85 63.58-22.17 64.23-24.49 65.41-26.49 66.6-28.49 68.26-30.15 69.92-31.81 71.93-32.98 73.95-34.16 76.25-34.8 78.56-35.45 81.05-35.45L81.05-35.45Q83.54-35.45 85.86-34.8 88.18-34.16 90.18-32.98 92.18-31.81 93.84-30.15 95.5-28.49 96.67-26.49 97.85-24.49 98.49-22.17 99.14-19.85 99.14-17.36ZM92.18-17.36L92.18-17.36Q92.18-19.65 91.3-21.69 90.42-23.73 88.92-25.23 87.42-26.73 85.38-27.61 83.34-28.49 81.05-28.49L81.05-28.49Q78.73-28.49 76.7-27.61 74.68-26.73 73.16-25.23 71.65-23.73 70.77-21.69 69.89-19.65 69.89-17.36L69.89-17.36Q69.89-15.06 70.77-13.05 71.65-11.04 73.16-9.52 74.68-8.01 76.7-7.13 78.73-6.25 81.05-6.25L81.05-6.25Q83.34-6.25 85.38-7.13 87.42-8.01 88.92-9.52 90.42-11.04 91.3-13.05 92.18-15.06 92.18-17.36ZM127.97-9.69L131.68-3.59Q129.24-1.49 126.21-0.37 123.19 0.76 119.94 0.76L119.94 0.76Q117.45 0.76 115.14 0.11 112.83-0.54 110.82-1.72 108.81-2.91 107.15-4.57 105.49-6.23 104.3-8.24 103.12-10.25 102.47-12.56 101.82-14.87 101.82-17.36L101.82-17.36Q101.82-19.85 102.47-22.17 103.12-24.49 104.3-26.5 105.49-28.52 107.15-30.18 108.81-31.84 110.82-33.02 112.83-34.2 115.14-34.85 117.45-35.5 119.94-35.5L119.94-35.5Q123.19-35.5 126.21-34.39 129.24-33.28 131.68-31.15L131.68-31.15 127.97-25.05Q126.43-26.71 124.33-27.6 122.23-28.49 119.94-28.49L119.94-28.49Q117.62-28.49 115.59-27.61 113.57-26.73 112.05-25.23 110.54-23.73 109.66-21.69 108.78-19.65 108.78-17.36L108.78-17.36Q108.78-15.06 109.66-13.05 110.54-11.04 112.05-9.52 113.57-8.01 115.59-7.13 117.62-6.25 119.94-6.25L119.94-6.25Q122.23-6.25 124.33-7.14 126.43-8.03 127.97-9.69L127.97-9.69ZM150.43-28L150.43 0 143.45 0 143.45-28 132.92-28 132.92-35.01 160.93-35.01 160.93-28 150.43-28ZM197.84-17.36L197.84-17.36Q197.84-14.87 197.19-12.56 196.55-10.25 195.37-8.24 194.2-6.23 192.54-4.57 190.88-2.91 188.88-1.72 186.88-0.54 184.56 0.11 182.24 0.76 179.75 0.76L179.75 0.76Q177.26 0.76 174.95 0.11 172.64-0.54 170.63-1.72 168.62-2.91 166.96-4.57 165.3-6.23 164.11-8.24 162.93-10.25 162.28-12.56 161.63-14.87 161.63-17.36L161.63-17.36Q161.63-19.85 162.28-22.17 162.93-24.49 164.11-26.49 165.3-28.49 166.96-30.15 168.62-31.81 170.63-32.98 172.64-34.16 174.95-34.8 177.26-35.45 179.75-35.45L179.75-35.45Q182.24-35.45 184.56-34.8 186.88-34.16 188.88-32.98 190.88-31.81 192.54-30.15 194.2-28.49 195.37-26.49 196.55-24.49 197.19-22.17 197.84-19.85 197.84-17.36ZM190.88-17.36L190.88-17.36Q190.88-19.65 190-21.69 189.12-23.73 187.62-25.23 186.12-26.73 184.08-27.61 182.04-28.49 179.75-28.49L179.75-28.49Q177.43-28.49 175.4-27.61 173.38-26.73 171.86-25.23 170.35-23.73 169.47-21.69 168.59-19.65 168.59-17.36L168.59-17.36Q168.59-15.06 169.47-13.05 170.35-11.04 171.86-9.52 173.38-8.01 175.4-7.13 177.43-6.25 179.75-6.25L179.75-6.25Q182.04-6.25 184.08-7.13 186.12-8.01 187.62-9.52 189.12-11.04 190-13.05 190.88-15.06 190.88-17.36ZM216.44-28L209.43-28 209.43-13.99 216.44-13.99Q217.88-13.99 219.15-14.54 220.42-15.09 221.37-16.04 222.32-16.99 222.87-18.27 223.42-19.56 223.42-21L223.42-21Q223.42-22.44 222.87-23.72 222.32-25 221.37-25.95 220.42-26.9 219.15-27.45 217.88-28 216.44-28L216.44-28ZM209.43-7.01L209.43 0 202.43 0 202.43-35.01 216.44-35.01Q218.37-35.01 220.15-34.51 221.93-34.01 223.48-33.09 225.03-32.18 226.32-30.9 227.6-29.61 228.51-28.05 229.43-26.49 229.93-24.71 230.43-22.92 230.43-21L230.43-21Q230.43-19.19 229.98-17.48 229.53-15.77 228.68-14.23 227.84-12.7 226.62-11.4 225.4-10.11 223.89-9.16L223.89-9.16 227.77 0 220.32 0 217.27-7.06 209.43-7.01ZM262.63-35.01L262.63-13.99Q262.63-11.08 261.53-8.53 260.43-5.98 258.53-4.09 256.62-2.2 254.07-1.1 251.52 0 248.62 0L248.62 0Q245.71 0 243.16-1.1 240.61-2.2 238.72-4.09 236.82-5.98 235.72-8.53 234.63-11.08 234.63-13.99L234.63-13.99 234.63-35.01 241.61-35.01 241.61-13.99Q241.61-12.55 242.16-11.28 242.71-10.01 243.66-9.06 244.61-8.11 245.89-7.56 247.17-7.01 248.62-7.01L248.62-7.01Q250.06-7.01 251.34-7.56 252.62-8.11 253.57-9.06 254.52-10.01 255.07-11.28 255.62-12.55 255.62-13.99L255.62-13.99 255.62-35.01 262.63-35.01ZM296.56-17.36L296.56-3.54Q294.12-1.46 291.12-0.35 288.11 0.76 284.87 0.76L284.87 0.76Q282.38 0.76 280.07 0.11 277.76-0.54 275.76-1.72 273.76-2.91 272.1-4.55 270.44-6.2 269.27-8.22 268.1-10.23 267.45-12.55 266.8-14.87 266.8-17.36L266.8-17.36Q266.8-19.85 267.45-22.14 268.1-24.44 269.27-26.45 270.44-28.47 272.1-30.11 273.76-31.76 275.76-32.93 277.76-34.11 280.07-34.75 282.38-35.4 284.87-35.4L284.87-35.4Q288.11-35.4 291.12-34.29 294.12-33.18 296.56-31.1L296.56-31.1 292.9-25Q291.31-26.61 289.24-27.53 287.16-28.44 284.87-28.44L284.87-28.44Q282.57-28.44 280.56-27.56 278.54-26.68 277.03-25.18 275.52-23.68 274.64-21.67 273.76-19.65 273.76-17.36L273.76-17.36Q273.76-15.04 274.64-13.01 275.52-10.99 277.03-9.47 278.54-7.96 280.56-7.08 282.57-6.2 284.87-6.2L284.87-6.2Q286.19-6.2 287.43-6.52 288.68-6.84 289.8-7.4L289.8-7.4 289.8-17.36 296.56-17.36Z" opacity="1" transform="matrix(1,0,0,1,0,0)" fill="#ffffff" class="wordmark-text-0" data-fill-palette-color="primary" id="text-0"></path></svg></g></svg></g></svg></g></svg></g></svg></g></svg></g></svg></g></svg></g><defs></defs></svg><rect width="375.07953" height="113.8371" fill="none" stroke="none" visibility="hidden"></rect></g></svg></g></svg>